<?xml version="1.0" standalone="no"?>
<!DOCTYPE svg PUBLIC "-//W3C//DTD SVG 20010904//EN"
 "http://www.w3.org/TR/2001/REC-SVG-20010904/DTD/svg10.dtd">
<svg version="1.0" xmlns="http://www.w3.org/2000/svg"
 width="700.000000pt" height="700.000000pt" viewBox="0 0 700.000000 700.000000"
 preserveAspectRatio="xMidYMid meet">
<metadata>
Created by potrace 1.14, written by Peter Selinger 2001-2017
</metadata>
<g transform="translate(0.000000,700.000000) scale(0.100000,-0.100000)"
fill="#000000" stroke="none">
<path d="M3285 6994 c-22 -2 -89 -9 -150 -14 -585 -57 -1178 -282 -1670 -633
-294 -210 -602 -518 -813 -813 -306 -429 -514 -928 -601 -1444 -36 -214 -46
-332 -46 -590 0 -258 10 -376 46 -590 137 -808 562 -1550 1194 -2085 532 -450
1171 -723 1890 -807 148 -17 608 -17 750 0 523 64 982 220 1415 480 843 506
1438 1347 1630 2302 53 263 64 380 64 680 1 355 -23 559 -99 867 -158 636
-478 1190 -956 1659 -554 541 -1252 875 -2029 970 -118 14 -539 27 -625 18z
m-2187 -2731 c12 -10 62 -93 112 -185 106 -194 74 -172 324 -219 175 -33 206
-46 206 -89 0 -13 -45 -69 -112 -141 -62 -66 -126 -136 -143 -155 l-29 -35 22
-182 c12 -100 22 -193 22 -206 0 -30 -27 -61 -53 -61 -10 0 -96 36 -189 80
-94 44 -180 80 -193 80 -12 0 -98 -36 -192 -80 -94 -44 -180 -80 -191 -80 -31
0 -52 27 -52 68 0 20 10 114 22 209 l22 172 -50 55 c-27 30 -91 100 -141 155
-140 151 -133 163 113 210 93 17 183 36 200 42 27 8 43 31 120 172 114 208
135 230 182 190z m1659 -7 c6 -6 52 -86 103 -178 106 -194 74 -172 324 -219
176 -33 206 -46 206 -90 0 -20 -35 -61 -197 -230 -65 -67 -83 -93 -83 -115 0
-16 9 -99 20 -184 11 -85 20 -168 20 -184 0 -35 -25 -66 -53 -66 -11 0 -96 36
-190 80 -94 44 -180 80 -192 80 -13 0 -99 -36 -193 -80 -93 -44 -179 -80 -190
-80 -30 0 -52 27 -52 63 0 18 10 112 22 209 l21 178 -39 44 c-21 25 -85 95
-141 155 -151 162 -146 173 103 220 249 47 217 26 320 214 99 181 123 212 157
202 12 -4 27 -12 34 -19z m1626 15 c19 -7 50 -56 121 -185 112 -203 79 -180
330 -227 175 -33 206 -46 206 -89 0 -13 -48 -72 -122 -151 -184 -195 -166
-148 -140 -362 12 -100 22 -193 22 -206 0 -31 -27 -61 -54 -61 -12 0 -97 36
-190 80 -93 44 -179 80 -191 80 -12 0 -99 -36 -193 -80 -93 -44 -179 -80 -190
-80 -33 0 -52 27 -52 73 0 23 9 109 20 191 11 81 20 159 20 172 0 16 -29 55
-93 121 -161 171 -187 202 -187 223 0 43 31 56 206 89 249 47 217 26 320 214
77 141 121 207 138 207 3 0 16 -4 29 -9z m1650 0 c19 -7 50 -56 121 -185 112
-203 79 -180 330 -227 175 -33 206 -46 206 -89 0 -13 -48 -72 -122 -151 -184
-195 -166 -148 -140 -362 12 -100 22 -193 22 -206 0 -31 -27 -61 -54 -61 -12
0 -97 36 -190 80 -93 44 -179 80 -191 80 -12 0 -99 -36 -193 -80 -94 -44 -180
-80 -190 -80 -10 0 -27 6 -37 14 -23 16 -22 50 5 251 11 81 20 158 20 171 0
16 -30 55 -93 121 -161 171 -187 202 -187 223 0 43 31 56 206 89 249 47 217
26 320 214 77 141 121 207 138 207 3 0 16 -4 29 -9z"/>
<path d="M5945 3978 c-99 -182 -90 -175 -300 -216 l-136 -27 95 -102 c52 -56
102 -115 110 -132 20 -37 20 -112 1 -251 -7 -57 -13 -105 -12 -106 1 -1 61 26
132 59 173 82 189 82 349 5 65 -32 124 -58 130 -58 9 0 8 35 -6 142 -13 105
-15 152 -8 179 7 26 42 72 110 146 55 59 100 111 100 114 0 4 -53 17 -117 28
-139 26 -192 43 -221 74 -11 12 -51 76 -87 142 -37 66 -69 121 -70 123 -1 2
-33 -52 -70 -120z"/>
</g>
</svg>
